<?xml version="1.0" encoding="utf-8" standalone="no"?>
<!DOCTYPE svg PUBLIC "-//W3C//DTD SVG 1.1//EN"
  "http://www.w3.org/Graphics/SVG/1.1/DTD/svg11.dtd">
<svg xmlns:xlink="http://www.w3.org/1999/xlink" width="460.8pt" height="345.6pt" viewBox="0 0 460.8 345.6" xmlns="http://www.w3.org/2000/svg" version="1.1">
 <metadata>
  <rdf:RDF xmlns:dc="http://purl.org/dc/elements/1.1/" xmlns:cc="http://creativecommons.org/ns#" xmlns:rdf="http://www.w3.org/1999/02/22-rdf-syntax-ns#">
   <cc:Work>
    <dc:type rdf:resource="http://purl.org/dc/dcmitype/StillImage"/>
    <dc:date>2026-02-15T07:33:26.528879</dc:date>
    <dc:format>image/svg+xml</dc:format>
    <dc:creator>
     <cc:Agent>
      <dc:title>Matplotlib v3.10.3, https://matplotlib.org/</dc:title>
     </cc:Agent>
    </dc:creator>
   </cc:Work>
  </rdf:RDF>
 </metadata>
 <defs>
  <style type="text/css">*{stroke-linejoin: round; stroke-linecap: butt}</style>
 </defs>
 <g id="figure_1">
  <g id="patch_1">
   <path d="M 0 345.6 
L 460.8 345.6 
L 460.8 0 
L 0 0 
L 0 345.6 
z
" style="fill: none"/>
  </g>
  <g id="axes_1">
   <g id="patch_2">
    <path d="M 55.785469 298.105781 
L 435.605937 298.105781 
L 435.605937 12.96 
L 55.785469 12.96 
L 55.785469 298.105781 
z
" style="fill: none"/>
   </g>
   <g id="matplotlib.axis_1">
    <g id="xtick_1">
     <g id="line2d_1">
      <path d="M 55.785469 298.105781 
L 55.785469 12.96 
" clip-path="url(#p631f379f7f)" style="fill: none; stroke: #ffffff; stroke-opacity: 0.5; stroke-linecap: round"/>
     </g>
     <g id="text_1">
      <!-- 2018 -->
      <g style="fill: #ffffff" transform="translate(43.551406 315.479375) scale(0.11 -0.11)">
       <defs>
        <path id="ArialMT-32" d="M 3222 541 
L 3222 0 
L 194 0 
Q 188 203 259 391 
Q 375 700 629 1000 
Q 884 1300 1366 1694 
Q 2113 2306 2375 2664 
Q 2638 3022 2638 3341 
Q 2638 3675 2398 3904 
Q 2159 4134 1775 4134 
Q 1369 4134 1125 3890 
Q 881 3647 878 3216 
L 300 3275 
Q 359 3922 746 4261 
Q 1134 4600 1788 4600 
Q 2447 4600 2831 4234 
Q 3216 3869 3216 3328 
Q 3216 3053 3103 2787 
Q 2991 2522 2730 2228 
Q 2469 1934 1863 1422 
Q 1356 997 1212 845 
Q 1069 694 975 541 
L 3222 541 
z
" transform="scale(0.015625)"/>
        <path id="ArialMT-30" d="M 266 2259 
Q 266 3072 433 3567 
Q 600 4063 929 4331 
Q 1259 4600 1759 4600 
Q 2128 4600 2406 4451 
Q 2684 4303 2865 4023 
Q 3047 3744 3150 3342 
Q 3253 2941 3253 2259 
Q 3253 1453 3087 958 
Q 2922 463 2592 192 
Q 2263 -78 1759 -78 
Q 1097 -78 719 397 
Q 266 969 266 2259 
z
M 844 2259 
Q 844 1131 1108 757 
Q 1372 384 1759 384 
Q 2147 384 2411 759 
Q 2675 1134 2675 2259 
Q 2675 3391 2411 3762 
Q 2147 4134 1753 4134 
Q 1366 4134 1134 3806 
Q 844 3388 844 2259 
z
" transform="scale(0.015625)"/>
        <path id="ArialMT-31" d="M 2384 0 
L 1822 0 
L 1822 3584 
Q 1619 3391 1289 3197 
Q 959 3003 697 2906 
L 697 3450 
Q 1169 3672 1522 3987 
Q 1875 4303 2022 4600 
L 2384 4600 
L 2384 0 
z
" transform="scale(0.015625)"/>
        <path id="ArialMT-38" d="M 1131 2484 
Q 781 2613 612 2850 
Q 444 3088 444 3419 
Q 444 3919 803 4259 
Q 1163 4600 1759 4600 
Q 2359 4600 2725 4251 
Q 3091 3903 3091 3403 
Q 3091 3084 2923 2848 
Q 2756 2613 2416 2484 
Q 2838 2347 3058 2040 
Q 3278 1734 3278 1309 
Q 3278 722 2862 322 
Q 2447 -78 1769 -78 
Q 1091 -78 675 323 
Q 259 725 259 1325 
Q 259 1772 486 2073 
Q 713 2375 1131 2484 
z
M 1019 3438 
Q 1019 3113 1228 2906 
Q 1438 2700 1772 2700 
Q 2097 2700 2305 2904 
Q 2513 3109 2513 3406 
Q 2513 3716 2298 3927 
Q 2084 4138 1766 4138 
Q 1444 4138 1231 3931 
Q 1019 3725 1019 3438 
z
M 838 1322 
Q 838 1081 952 856 
Q 1066 631 1291 507 
Q 1516 384 1775 384 
Q 2178 384 2440 643 
Q 2703 903 2703 1303 
Q 2703 1709 2433 1975 
Q 2163 2241 1756 2241 
Q 1359 2241 1098 1978 
Q 838 1716 838 1322 
z
" transform="scale(0.015625)"/>
       </defs>
       <use xlink:href="#ArialMT-32"/>
       <use xlink:href="#ArialMT-30" transform="translate(55.615234 0)"/>
       <use xlink:href="#ArialMT-31" transform="translate(111.230469 0)"/>
       <use xlink:href="#ArialMT-38" transform="translate(166.845703 0)"/>
      </g>
     </g>
    </g>
    <g id="xtick_2">
     <g id="line2d_2">
      <path d="M 119.08888 298.105781 
L 119.08888 12.96 
" clip-path="url(#p631f379f7f)" style="fill: none; stroke: #ffffff; stroke-opacity: 0.5; stroke-linecap: round"/>
     </g>
     <g id="text_2">
      <!-- 2019 -->
      <g style="fill: #ffffff" transform="translate(106.854818 315.479375) scale(0.11 -0.11)">
       <defs>
        <path id="ArialMT-39" d="M 350 1059 
L 891 1109 
Q 959 728 1153 556 
Q 1347 384 1650 384 
Q 1909 384 2104 503 
Q 2300 622 2425 820 
Q 2550 1019 2634 1356 
Q 2719 1694 2719 2044 
Q 2719 2081 2716 2156 
Q 2547 1888 2255 1720 
Q 1963 1553 1622 1553 
Q 1053 1553 659 1965 
Q 266 2378 266 3053 
Q 266 3750 677 4175 
Q 1088 4600 1706 4600 
Q 2153 4600 2523 4359 
Q 2894 4119 3086 3673 
Q 3278 3228 3278 2384 
Q 3278 1506 3087 986 
Q 2897 466 2520 194 
Q 2144 -78 1638 -78 
Q 1100 -78 759 220 
Q 419 519 350 1059 
z
M 2653 3081 
Q 2653 3566 2395 3850 
Q 2138 4134 1775 4134 
Q 1400 4134 1122 3828 
Q 844 3522 844 3034 
Q 844 2597 1108 2323 
Q 1372 2050 1759 2050 
Q 2150 2050 2401 2323 
Q 2653 2597 2653 3081 
z
" transform="scale(0.015625)"/>
       </defs>
       <use xlink:href="#ArialMT-32"/>
       <use xlink:href="#ArialMT-30" transform="translate(55.615234 0)"/>
       <use xlink:href="#ArialMT-31" transform="translate(111.230469 0)"/>
       <use xlink:href="#ArialMT-39" transform="translate(166.845703 0)"/>
      </g>
     </g>
    </g>
    <g id="xtick_3">
     <g id="line2d_3">
      <path d="M 182.392292 298.105781 
L 182.392292 12.96 
" clip-path="url(#p631f379f7f)" style="fill: none; stroke: #ffffff; stroke-opacity: 0.5; stroke-linecap: round"/>
     </g>
     <g id="text_3">
      <!-- 2020 -->
      <g style="fill: #ffffff" transform="translate(170.158229 315.479375) scale(0.11 -0.11)">
       <use xlink:href="#ArialMT-32"/>
       <use xlink:href="#ArialMT-30" transform="translate(55.615234 0)"/>
       <use xlink:href="#ArialMT-32" transform="translate(111.230469 0)"/>
       <use xlink:href="#ArialMT-30" transform="translate(166.845703 0)"/>
      </g>
     </g>
    </g>
    <g id="xtick_4">
     <g id="line2d_4">
      <path d="M 245.695703 298.105781 
L 245.695703 12.96 
" clip-path="url(#p631f379f7f)" style="fill: none; stroke: #ffffff; stroke-opacity: 0.5; stroke-linecap: round"/>
     </g>
     <g id="text_4">
      <!-- 2021 -->
      <g style="fill: #ffffff" transform="translate(233.461641 315.479375) scale(0.11 -0.11)">
       <use xlink:href="#ArialMT-32"/>
       <use xlink:href="#ArialMT-30" transform="translate(55.615234 0)"/>
       <use xlink:href="#ArialMT-32" transform="translate(111.230469 0)"/>
       <use xlink:href="#ArialMT-31" transform="translate(166.845703 0)"/>
      </g>
     </g>
    </g>
    <g id="xtick_5">
     <g id="line2d_5">
      <path d="M 308.999115 298.105781 
L 308.999115 12.96 
" clip-path="url(#p631f379f7f)" style="fill: none; stroke: #ffffff; stroke-opacity: 0.5; stroke-linecap: round"/>
     </g>
     <g id="text_5">
      <!-- 2022 -->
      <g style="fill: #ffffff" transform="translate(296.765052 315.479375) scale(0.11 -0.11)">
       <use xlink:href="#ArialMT-32"/>
       <use xlink:href="#ArialMT-30" transform="translate(55.615234 0)"/>
       <use xlink:href="#ArialMT-32" transform="translate(111.230469 0)"/>
       <use xlink:href="#ArialMT-32" transform="translate(166.845703 0)"/>
      </g>
     </g>
    </g>
    <g id="xtick_6">
     <g id="line2d_6">
      <path d="M 372.302526 298.105781 
L 372.302526 12.96 
" clip-path="url(#p631f379f7f)" style="fill: none; stroke: #ffffff; stroke-opacity: 0.5; stroke-linecap: round"/>
     </g>
     <g id="text_6">
      <!-- 2023 -->
      <g style="fill: #ffffff" transform="translate(360.068464 315.479375) scale(0.11 -0.11)">
       <defs>
        <path id="ArialMT-33" d="M 269 1209 
L 831 1284 
Q 928 806 1161 595 
Q 1394 384 1728 384 
Q 2125 384 2398 659 
Q 2672 934 2672 1341 
Q 2672 1728 2419 1979 
Q 2166 2231 1775 2231 
Q 1616 2231 1378 2169 
L 1441 2663 
Q 1497 2656 1531 2656 
Q 1891 2656 2178 2843 
Q 2466 3031 2466 3422 
Q 2466 3731 2256 3934 
Q 2047 4138 1716 4138 
Q 1388 4138 1169 3931 
Q 950 3725 888 3313 
L 325 3413 
Q 428 3978 793 4289 
Q 1159 4600 1703 4600 
Q 2078 4600 2393 4439 
Q 2709 4278 2876 4000 
Q 3044 3722 3044 3409 
Q 3044 3113 2884 2869 
Q 2725 2625 2413 2481 
Q 2819 2388 3044 2092 
Q 3269 1797 3269 1353 
Q 3269 753 2831 336 
Q 2394 -81 1725 -81 
Q 1122 -81 723 278 
Q 325 638 269 1209 
z
" transform="scale(0.015625)"/>
       </defs>
       <use xlink:href="#ArialMT-32"/>
       <use xlink:href="#ArialMT-30" transform="translate(55.615234 0)"/>
       <use xlink:href="#ArialMT-32" transform="translate(111.230469 0)"/>
       <use xlink:href="#ArialMT-33" transform="translate(166.845703 0)"/>
      </g>
     </g>
    </g>
    <g id="xtick_7">
     <g id="line2d_7">
      <path d="M 435.605937 298.105781 
L 435.605937 12.96 
" clip-path="url(#p631f379f7f)" style="fill: none; stroke: #ffffff; stroke-opacity: 0.5; stroke-linecap: round"/>
     </g>
     <g id="text_7">
      <!-- 2024 -->
      <g style="fill: #ffffff" transform="translate(423.371875 315.479375) scale(0.11 -0.11)">
       <defs>
        <path id="ArialMT-34" d="M 2069 0 
L 2069 1097 
L 81 1097 
L 81 1613 
L 2172 4581 
L 2631 4581 
L 2631 1613 
L 3250 1613 
L 3250 1097 
L 2631 1097 
L 2631 0 
L 2069 0 
z
M 2069 1613 
L 2069 3678 
L 634 1613 
L 2069 1613 
z
" transform="scale(0.015625)"/>
       </defs>
       <use xlink:href="#ArialMT-32"/>
       <use xlink:href="#ArialMT-30" transform="translate(55.615234 0)"/>
       <use xlink:href="#ArialMT-32" transform="translate(111.230469 0)"/>
       <use xlink:href="#ArialMT-34" transform="translate(166.845703 0)"/>
      </g>
     </g>
    </g>
    <g id="text_8">
     <!-- Year -->
     <g style="fill: #ffffff" transform="translate(233.570078 330.255) scale(0.12 -0.12)">
      <defs>
       <path id="ArialMT-59" d="M 1784 0 
L 1784 1941 
L 19 4581 
L 756 4581 
L 1659 3200 
Q 1909 2813 2125 2425 
Q 2331 2784 2625 3234 
L 3513 4581 
L 4219 4581 
L 2391 1941 
L 2391 0 
L 1784 0 
z
" transform="scale(0.015625)"/>
       <path id="ArialMT-65" d="M 2694 1069 
L 3275 997 
Q 3138 488 2766 206 
Q 2394 -75 1816 -75 
Q 1088 -75 661 373 
Q 234 822 234 1631 
Q 234 2469 665 2931 
Q 1097 3394 1784 3394 
Q 2450 3394 2872 2941 
Q 3294 2488 3294 1666 
Q 3294 1616 3291 1516 
L 816 1516 
Q 847 969 1125 678 
Q 1403 388 1819 388 
Q 2128 388 2347 550 
Q 2566 713 2694 1069 
z
M 847 1978 
L 2700 1978 
Q 2663 2397 2488 2606 
Q 2219 2931 1791 2931 
Q 1403 2931 1139 2672 
Q 875 2413 847 1978 
z
" transform="scale(0.015625)"/>
       <path id="ArialMT-61" d="M 2588 409 
Q 2275 144 1986 34 
Q 1697 -75 1366 -75 
Q 819 -75 525 192 
Q 231 459 231 875 
Q 231 1119 342 1320 
Q 453 1522 633 1644 
Q 813 1766 1038 1828 
Q 1203 1872 1538 1913 
Q 2219 1994 2541 2106 
Q 2544 2222 2544 2253 
Q 2544 2597 2384 2738 
Q 2169 2928 1744 2928 
Q 1347 2928 1158 2789 
Q 969 2650 878 2297 
L 328 2372 
Q 403 2725 575 2942 
Q 747 3159 1072 3276 
Q 1397 3394 1825 3394 
Q 2250 3394 2515 3294 
Q 2781 3194 2906 3042 
Q 3031 2891 3081 2659 
Q 3109 2516 3109 2141 
L 3109 1391 
Q 3109 606 3145 398 
Q 3181 191 3288 0 
L 2700 0 
Q 2613 175 2588 409 
z
M 2541 1666 
Q 2234 1541 1622 1453 
Q 1275 1403 1131 1340 
Q 988 1278 909 1158 
Q 831 1038 831 891 
Q 831 666 1001 516 
Q 1172 366 1500 366 
Q 1825 366 2078 508 
Q 2331 650 2450 897 
Q 2541 1088 2541 1459 
L 2541 1666 
z
" transform="scale(0.015625)"/>
       <path id="ArialMT-72" d="M 416 0 
L 416 3319 
L 922 3319 
L 922 2816 
Q 1116 3169 1280 3281 
Q 1444 3394 1641 3394 
Q 1925 3394 2219 3213 
L 2025 2691 
Q 1819 2813 1613 2813 
Q 1428 2813 1281 2702 
Q 1134 2591 1072 2394 
Q 978 2094 978 1738 
L 978 0 
L 416 0 
z
" transform="scale(0.015625)"/>
      </defs>
      <use xlink:href="#ArialMT-59"/>
      <use xlink:href="#ArialMT-65" transform="translate(57.574219 0)"/>
      <use xlink:href="#ArialMT-61" transform="translate(113.189453 0)"/>
      <use xlink:href="#ArialMT-72" transform="translate(168.804688 0)"/>
     </g>
    </g>
   </g>
   <g id="matplotlib.axis_2">
    <g id="ytick_1">
     <g id="line2d_8">
      <path d="M 55.785469 298.105781 
L 435.605937 298.105781 
" clip-path="url(#p631f379f7f)" style="fill: none; stroke: #ffffff; stroke-opacity: 0.5; stroke-linecap: round"/>
     </g>
     <g id="text_9">
      <!-- 0 -->
      <g style="fill: #ffffff" transform="translate(40.168437 302.042578) scale(0.11 -0.11)">
       <use xlink:href="#ArialMT-30"/>
      </g>
     </g>
    </g>
    <g id="ytick_2">
     <g id="line2d_9">
      <path d="M 55.785469 258.775329 
L 435.605937 258.775329 
" clip-path="url(#p631f379f7f)" style="fill: none; stroke: #ffffff; stroke-opacity: 0.5; stroke-linecap: round"/>
     </g>
     <g id="text_10">
      <!-- 100 -->
      <g style="fill: #ffffff" transform="translate(27.934375 262.712126) scale(0.11 -0.11)">
       <use xlink:href="#ArialMT-31"/>
       <use xlink:href="#ArialMT-30" transform="translate(55.615234 0)"/>
       <use xlink:href="#ArialMT-30" transform="translate(111.230469 0)"/>
      </g>
     </g>
    </g>
    <g id="ytick_3">
     <g id="line2d_10">
      <path d="M 55.785469 219.444876 
L 435.605937 219.444876 
" clip-path="url(#p631f379f7f)" style="fill: none; stroke: #ffffff; stroke-opacity: 0.5; stroke-linecap: round"/>
     </g>
     <g id="text_11">
      <!-- 200 -->
      <g style="fill: #ffffff" transform="translate(27.934375 223.381673) scale(0.11 -0.11)">
       <use xlink:href="#ArialMT-32"/>
       <use xlink:href="#ArialMT-30" transform="translate(55.615234 0)"/>
       <use xlink:href="#ArialMT-30" transform="translate(111.230469 0)"/>
      </g>
     </g>
    </g>
    <g id="ytick_4">
     <g id="line2d_11">
      <path d="M 55.785469 180.114423 
L 435.605937 180.114423 
" clip-path="url(#p631f379f7f)" style="fill: none; stroke: #ffffff; stroke-opacity: 0.5; stroke-linecap: round"/>
     </g>
     <g id="text_12">
      <!-- 300 -->
      <g style="fill: #ffffff" transform="translate(27.934375 184.05122) scale(0.11 -0.11)">
       <use xlink:href="#ArialMT-33"/>
       <use xlink:href="#ArialMT-30" transform="translate(55.615234 0)"/>
       <use xlink:href="#ArialMT-30" transform="translate(111.230469 0)"/>
      </g>
     </g>
    </g>
    <g id="ytick_5">
     <g id="line2d_12">
      <path d="M 55.785469 140.783971 
L 435.605937 140.783971 
" clip-path="url(#p631f379f7f)" style="fill: none; stroke: #ffffff; stroke-opacity: 0.5; stroke-linecap: round"/>
     </g>
     <g id="text_13">
      <!-- 400 -->
      <g style="fill: #ffffff" transform="translate(27.934375 144.720768) scale(0.11 -0.11)">
       <use xlink:href="#ArialMT-34"/>
       <use xlink:href="#ArialMT-30" transform="translate(55.615234 0)"/>
       <use xlink:href="#ArialMT-30" transform="translate(111.230469 0)"/>
      </g>
     </g>
    </g>
    <g id="ytick_6">
     <g id="line2d_13">
      <path d="M 55.785469 101.453518 
L 435.605937 101.453518 
" clip-path="url(#p631f379f7f)" style="fill: none; stroke: #ffffff; stroke-opacity: 0.5; stroke-linecap: round"/>
     </g>
     <g id="text_14">
      <!-- 500 -->
      <g style="fill: #ffffff" transform="translate(27.934375 105.390315) scale(0.11 -0.11)">
       <defs>
        <path id="ArialMT-35" d="M 266 1200 
L 856 1250 
Q 922 819 1161 601 
Q 1400 384 1738 384 
Q 2144 384 2425 690 
Q 2706 997 2706 1503 
Q 2706 1984 2436 2262 
Q 2166 2541 1728 2541 
Q 1456 2541 1237 2417 
Q 1019 2294 894 2097 
L 366 2166 
L 809 4519 
L 3088 4519 
L 3088 3981 
L 1259 3981 
L 1013 2750 
Q 1425 3038 1878 3038 
Q 2478 3038 2890 2622 
Q 3303 2206 3303 1553 
Q 3303 931 2941 478 
Q 2500 -78 1738 -78 
Q 1113 -78 717 272 
Q 322 622 266 1200 
z
" transform="scale(0.015625)"/>
       </defs>
       <use xlink:href="#ArialMT-35"/>
       <use xlink:href="#ArialMT-30" transform="translate(55.615234 0)"/>
       <use xlink:href="#ArialMT-30" transform="translate(111.230469 0)"/>
      </g>
     </g>
    </g>
    <g id="ytick_7">
     <g id="line2d_14">
      <path d="M 55.785469 62.123066 
L 435.605937 62.123066 
" clip-path="url(#p631f379f7f)" style="fill: none; stroke: #ffffff; stroke-opacity: 0.5; stroke-linecap: round"/>
     </g>
     <g id="text_15">
      <!-- 600 -->
      <g style="fill: #ffffff" transform="translate(27.934375 66.059863) scale(0.11 -0.11)">
       <defs>
        <path id="ArialMT-36" d="M 3184 3459 
L 2625 3416 
Q 2550 3747 2413 3897 
Q 2184 4138 1850 4138 
Q 1581 4138 1378 3988 
Q 1113 3794 959 3422 
Q 806 3050 800 2363 
Q 1003 2672 1297 2822 
Q 1591 2972 1913 2972 
Q 2475 2972 2870 2558 
Q 3266 2144 3266 1488 
Q 3266 1056 3080 686 
Q 2894 316 2569 119 
Q 2244 -78 1831 -78 
Q 1128 -78 684 439 
Q 241 956 241 2144 
Q 241 3472 731 4075 
Q 1159 4600 1884 4600 
Q 2425 4600 2770 4297 
Q 3116 3994 3184 3459 
z
M 888 1484 
Q 888 1194 1011 928 
Q 1134 663 1356 523 
Q 1578 384 1822 384 
Q 2178 384 2434 671 
Q 2691 959 2691 1453 
Q 2691 1928 2437 2201 
Q 2184 2475 1800 2475 
Q 1419 2475 1153 2201 
Q 888 1928 888 1484 
z
" transform="scale(0.015625)"/>
       </defs>
       <use xlink:href="#ArialMT-36"/>
       <use xlink:href="#ArialMT-30" transform="translate(55.615234 0)"/>
       <use xlink:href="#ArialMT-30" transform="translate(111.230469 0)"/>
      </g>
     </g>
    </g>
    <g id="ytick_8">
     <g id="line2d_15">
      <path d="M 55.785469 22.792613 
L 435.605937 22.792613 
" clip-path="url(#p631f379f7f)" style="fill: none; stroke: #ffffff; stroke-opacity: 0.5; stroke-linecap: round"/>
     </g>
     <g id="text_16">
      <!-- 700 -->
      <g style="fill: #ffffff" transform="translate(27.934375 26.72941) scale(0.11 -0.11)">
       <defs>
        <path id="ArialMT-37" d="M 303 3981 
L 303 4522 
L 3269 4522 
L 3269 4084 
Q 2831 3619 2401 2847 
Q 1972 2075 1738 1259 
Q 1569 684 1522 0 
L 944 0 
Q 953 541 1156 1306 
Q 1359 2072 1739 2783 
Q 2119 3494 2547 3981 
L 303 3981 
z
" transform="scale(0.015625)"/>
       </defs>
       <use xlink:href="#ArialMT-37"/>
       <use xlink:href="#ArialMT-30" transform="translate(55.615234 0)"/>
       <use xlink:href="#ArialMT-30" transform="translate(111.230469 0)"/>
      </g>
     </g>
    </g>
    <g id="text_17">
     <!-- Exits -->
     <g style="fill: #ffffff" transform="translate(21.549375 168.535078) rotate(-90) scale(0.12 -0.12)">
      <defs>
       <path id="ArialMT-45" d="M 506 0 
L 506 4581 
L 3819 4581 
L 3819 4041 
L 1113 4041 
L 1113 2638 
L 3647 2638 
L 3647 2100 
L 1113 2100 
L 1113 541 
L 3925 541 
L 3925 0 
L 506 0 
z
" transform="scale(0.015625)"/>
       <path id="ArialMT-78" d="M 47 0 
L 1259 1725 
L 138 3319 
L 841 3319 
L 1350 2541 
Q 1494 2319 1581 2169 
Q 1719 2375 1834 2534 
L 2394 3319 
L 3066 3319 
L 1919 1756 
L 3153 0 
L 2463 0 
L 1781 1031 
L 1600 1309 
L 728 0 
L 47 0 
z
" transform="scale(0.015625)"/>
       <path id="ArialMT-69" d="M 425 3934 
L 425 4581 
L 988 4581 
L 988 3934 
L 425 3934 
z
M 425 0 
L 425 3319 
L 988 3319 
L 988 0 
L 425 0 
z
" transform="scale(0.015625)"/>
       <path id="ArialMT-74" d="M 1650 503 
L 1731 6 
Q 1494 -44 1306 -44 
Q 1000 -44 831 53 
Q 663 150 594 308 
Q 525 466 525 972 
L 525 2881 
L 113 2881 
L 113 3319 
L 525 3319 
L 525 4141 
L 1084 4478 
L 1084 3319 
L 1650 3319 
L 1650 2881 
L 1084 2881 
L 1084 941 
Q 1084 700 1114 631 
Q 1144 563 1211 522 
Q 1278 481 1403 481 
Q 1497 481 1650 503 
z
" transform="scale(0.015625)"/>
       <path id="ArialMT-73" d="M 197 991 
L 753 1078 
Q 800 744 1014 566 
Q 1228 388 1613 388 
Q 2000 388 2187 545 
Q 2375 703 2375 916 
Q 2375 1106 2209 1216 
Q 2094 1291 1634 1406 
Q 1016 1563 777 1677 
Q 538 1791 414 1992 
Q 291 2194 291 2438 
Q 291 2659 392 2848 
Q 494 3038 669 3163 
Q 800 3259 1026 3326 
Q 1253 3394 1513 3394 
Q 1903 3394 2198 3281 
Q 2494 3169 2634 2976 
Q 2775 2784 2828 2463 
L 2278 2388 
Q 2241 2644 2061 2787 
Q 1881 2931 1553 2931 
Q 1166 2931 1000 2803 
Q 834 2675 834 2503 
Q 834 2394 903 2306 
Q 972 2216 1119 2156 
Q 1203 2125 1616 2013 
Q 2213 1853 2448 1751 
Q 2684 1650 2818 1456 
Q 2953 1263 2953 975 
Q 2953 694 2789 445 
Q 2625 197 2315 61 
Q 2006 -75 1616 -75 
Q 969 -75 630 194 
Q 291 463 197 991 
z
" transform="scale(0.015625)"/>
      </defs>
      <use xlink:href="#ArialMT-45"/>
      <use xlink:href="#ArialMT-78" transform="translate(66.699219 0)"/>
      <use xlink:href="#ArialMT-69" transform="translate(116.699219 0)"/>
      <use xlink:href="#ArialMT-74" transform="translate(138.916016 0)"/>
      <use xlink:href="#ArialMT-73" transform="translate(166.699219 0)"/>
     </g>
    </g>
   </g>
   <g id="PathCollection_1">
    <path d="M 55.785469 38.378358 
C 56.581078 38.378358 57.344208 38.062259 57.906789 37.499678 
C 58.46937 36.937098 58.785469 36.173967 58.785469 35.378358 
C 58.785469 34.582749 58.46937 33.819618 57.906789 33.257038 
C 57.344208 32.694457 56.581078 32.378358 55.785469 32.378358 
C 54.989859 32.378358 54.226729 32.694457 53.664148 33.257038 
C 53.101568 33.819618 52.785469 34.582749 52.785469 35.378358 
C 52.785469 36.173967 53.101568 36.937098 53.664148 37.499678 
C 54.226729 38.062259 54.989859 38.378358 55.785469 38.378358 
z
" clip-path="url(#p631f379f7f)" style="fill: #4c72b0; stroke: #4c72b0; stroke-width: 0.5"/>
    <path d="M 119.08888 45.851144 
C 119.88449 45.851144 120.64762 45.535045 121.210201 44.972464 
C 121.772781 44.409884 122.08888 43.646753 122.08888 42.851144 
C 122.08888 42.055535 121.772781 41.292404 121.210201 40.729824 
C 120.64762 40.167243 119.88449 39.851144 119.08888 39.851144 
C 118.293271 39.851144 117.530141 40.167243 116.96756 40.729824 
C 116.404979 41.292404 116.08888 42.055535 116.08888 42.851144 
C 116.08888 43.646753 116.404979 44.409884 116.96756 44.972464 
C 117.530141 45.535045 118.293271 45.851144 119.08888 45.851144 
z
" clip-path="url(#p631f379f7f)" style="fill: #4c72b0; stroke: #4c72b0; stroke-width: 0.5"/>
    <path d="M 182.392292 51.357407 
C 183.187901 51.357407 183.951031 51.041308 184.513612 50.478728 
C 185.076193 49.916147 185.392292 49.153017 185.392292 48.357407 
C 185.392292 47.561798 185.076193 46.798668 184.513612 46.236087 
C 183.951031 45.673506 183.187901 45.357407 182.392292 45.357407 
C 181.596682 45.357407 180.833552 45.673506 180.270971 46.236087 
C 179.708391 46.798668 179.392292 47.561798 179.392292 48.357407 
C 179.392292 49.153017 179.708391 49.916147 180.270971 50.478728 
C 180.833552 51.041308 181.596682 51.357407 182.392292 51.357407 
z
" clip-path="url(#p631f379f7f)" style="fill: #4c72b0; stroke: #4c72b0; stroke-width: 0.5"/>
    <path d="M 245.695703 67.089588 
C 246.491312 67.089588 247.254443 66.773489 247.817023 66.210909 
C 248.379604 65.648328 248.695703 64.885198 248.695703 64.089588 
C 248.695703 63.293979 248.379604 62.530849 247.817023 61.968268 
C 247.254443 61.405687 246.491312 61.089588 245.695703 61.089588 
C 244.900094 61.089588 244.136964 61.405687 243.574383 61.968268 
C 243.011802 62.530849 242.695703 63.293979 242.695703 64.089588 
C 242.695703 64.885198 243.011802 65.648328 243.574383 66.210909 
C 244.136964 66.773489 244.900094 67.089588 245.695703 67.089588 
z
" clip-path="url(#p631f379f7f)" style="fill: #4c72b0; stroke: #4c72b0; stroke-width: 0.5"/>
    <path d="M 308.999115 88.721337 
C 309.794724 88.721337 310.557854 88.405238 311.120435 87.842658 
C 311.683016 87.280077 311.999115 86.516947 311.999115 85.721337 
C 311.999115 84.925728 311.683016 84.162598 311.120435 83.600017 
C 310.557854 83.037436 309.794724 82.721337 308.999115 82.721337 
C 308.203505 82.721337 307.440375 83.037436 306.877794 83.600017 
C 306.315214 84.162598 305.999115 84.925728 305.999115 85.721337 
C 305.999115 86.516947 306.315214 87.280077 306.877794 87.842658 
C 307.440375 88.405238 308.203505 88.721337 308.999115 88.721337 
z
" clip-path="url(#p631f379f7f)" style="fill: #4c72b0; stroke: #4c72b0; stroke-width: 0.5"/>
    <path d="M 372.302526 107.20665 
C 373.098135 107.20665 373.861266 106.890551 374.423846 106.32797 
C 374.986427 105.76539 375.302526 105.002259 375.302526 104.20665 
C 375.302526 103.411041 374.986427 102.64791 374.423846 102.08533 
C 373.861266 101.522749 373.098135 101.20665 372.302526 101.20665 
C 371.506917 101.20665 370.743786 101.522749 370.181206 102.08533 
C 369.618625 102.64791 369.302526 103.411041 369.302526 104.20665 
C 369.302526 105.002259 369.618625 105.76539 370.181206 106.32797 
C 370.743786 106.890551 371.506917 107.20665 372.302526 107.20665 
z
" clip-path="url(#p631f379f7f)" style="fill: #4c72b0; stroke: #4c72b0; stroke-width: 0.5"/>
    <path d="M 435.605937 122.152222 
C 436.401547 122.152222 437.164677 121.836123 437.727258 121.273542 
C 438.289839 120.710962 438.605937 119.947831 438.605937 119.152222 
C 438.605937 118.356613 438.289839 117.593482 437.727258 117.030902 
C 437.164677 116.468321 436.401547 116.152222 435.605937 116.152222 
C 434.810328 116.152222 434.047198 116.468321 433.484617 117.030902 
C 432.922036 117.593482 432.605937 118.356613 432.605937 119.152222 
C 432.605937 119.947831 432.922036 120.710962 433.484617 121.273542 
C 434.047198 121.836123 434.810328 122.152222 435.605937 122.152222 
z
" clip-path="url(#p631f379f7f)" style="fill: #4c72b0; stroke: #4c72b0; stroke-width: 0.5"/>
   </g>
   <g id="patch_3">
    <path d="M 55.785469 298.105781 
L 119.08888 298.105781 
L 182.392292 298.105781 
L 245.695703 298.105781 
L 308.999115 298.105781 
L 372.302526 298.105781 
L 435.605937 298.105781 
L 435.605937 119.152222 
L 372.302526 104.20665 
L 308.999115 85.721337 
L 245.695703 64.089588 
L 182.392292 48.357407 
L 119.08888 42.851144 
L 55.785469 35.378358 
z
" clip-path="url(#p9a04bb5cfb)" style="fill: #4c72b0; fill-opacity: 0.2; stroke: #4c72b0; stroke-width: 2; stroke-linejoin: miter"/>
   </g>
   <g id="line2d_16">
    <path d="M 55.785469 119.152222 
L 435.605937 119.152222 
" clip-path="url(#p631f379f7f)" style="fill: none; stroke-dasharray: 2.4,4.8; stroke-dashoffset: 0; stroke: #cccccc; stroke-width: 0.8"/>
   </g>
   <g id="line2d_17">
    <path d="M 55.785469 35.378358 
L 435.605937 35.378358 
" clip-path="url(#p631f379f7f)" style="fill: none; stroke-dasharray: 2.4,4.8; stroke-dashoffset: 0; stroke: #cccccc; stroke-width: 0.8"/>
   </g>
   <g id="line2d_18">
    <path d="M 55.785469 35.378358 
L 119.08888 42.851144 
L 182.392292 48.357407 
L 245.695703 64.089588 
L 308.999115 85.721337 
L 372.302526 104.20665 
L 435.605937 119.152222 
" clip-path="url(#p631f379f7f)" style="fill: none; stroke: #4c72b0; stroke-width: 3; stroke-linecap: round"/>
   </g>
   <g id="patch_4">
    <path d="M 55.785469 298.105781 
L 55.785469 12.96 
" style="fill: none"/>
   </g>
   <g id="patch_5">
    <path d="M 435.605937 298.105781 
L 435.605937 12.96 
" style="fill: none"/>
   </g>
   <g id="patch_6">
    <path d="M 55.785469 298.105781 
L 435.605937 298.105781 
" style="fill: none"/>
   </g>
   <g id="patch_7">
    <path d="M 55.785469 12.96 
L 435.605937 12.96 
" style="fill: none"/>
   </g>
   <g id="text_18">
    <!-- 455 -->
    <g style="fill: #cccccc" transform="translate(39.770937 121.478863) scale(0.09 -0.09)">
     <use xlink:href="#ArialMT-34"/>
     <use xlink:href="#ArialMT-35" transform="translate(55.615234 0)"/>
     <use xlink:href="#ArialMT-35" transform="translate(111.230469 0)"/>
    </g>
   </g>
   <g id="text_19">
    <!-- 668 -->
    <g style="fill: #cccccc" transform="translate(39.770937 37.704999) scale(0.09 -0.09)">
     <use xlink:href="#ArialMT-36"/>
     <use xlink:href="#ArialMT-36" transform="translate(55.615234 0)"/>
     <use xlink:href="#ArialMT-38" transform="translate(111.230469 0)"/>
    </g>
   </g>
  </g>
 </g>
 <defs>
  <clipPath id="p631f379f7f">
   <rect x="55.785469" y="12.96" width="379.820469" height="285.145781"/>
  </clipPath>
  <clipPath id="p9a04bb5cfb">
   <path d="M 55.785469 298.105781 
L 119.08888 298.105781 
L 182.392292 298.105781 
L 245.695703 298.105781 
L 308.999115 298.105781 
L 372.302526 298.105781 
L 435.605937 298.105781 
L 435.605937 119.152222 
L 372.302526 104.20665 
L 308.999115 85.721337 
L 245.695703 64.089588 
L 182.392292 48.357407 
L 119.08888 42.851144 
L 55.785469 35.378358 
z
"/>
  </clipPath>
 </defs>
</svg>
